<?xml version="1.0" encoding="utf-8"?>
<!-- Generator: Adobe Illustrator 26.4.1, SVG Export Plug-In . SVG Version: 6.00 Build 0)  -->
<svg
  version="1.1"
  id="Livello_1"
  xmlns="http://www.w3.org/2000/svg"
  xmlns:xlink="http://www.w3.org/1999/xlink"
  x="0px"
  y="0px"
  viewBox="0 0 500 900"
  style="enable-background: new 0 0 500 900"
  xml:space="preserve"
>
  <style type="text/css">
    .st0 {
      fill: none;
      stroke: #112c51;
      stroke-width: 10;
    }
    .st1 {
      fill: none;
      stroke: #112c51;
      stroke-width: 10;
      stroke-miterlimit: 4;
    }
    .st2 {
      enable-background: new;
    }
    .st3 {
      fill: #112c51;
    }
  </style>
  <circle class="st0" cx="244.9" cy="305.7" r="131.1" />
  <ellipse class="st1" cx="245" cy="527.1" rx="131.1" ry="131.1" />
  <g class="st2">
    <path
      class="st3"
      d="M159.5,330.6l31.3-67.3c0.3-0.6,1-1.1,1.7-1.1h1c0.7,0,1.4,0.5,1.7,1.1l31.3,67.3c0.6,1.3-0.2,2.6-1.7,2.6
		h-11.1c-1.8,0-2.6-0.6-3.5-2.5l-3.6-7.9h-27.2l-3.6,8c-0.5,1.2-1.6,2.4-3.6,2.4h-11C159.7,333.2,158.9,331.9,159.5,330.6z
		 M200.6,309.2l-7.6-16.5h-0.1l-7.5,16.5H200.6z"
    />
  </g>
  <g class="st2">
    <path
      class="st3"
      d="M265.2,262.2c10,0,17.4,3.1,24.2,9.3c0.9,0.8,0.9,2,0.1,2.8l-7.8,8.1c-0.7,0.7-1.8,0.7-2.5,0
		c-3.7-3.3-8.6-5.1-13.5-5.1c-11.3,0-19.6,9.4-19.6,20.6c0,11.1,8.4,20.3,19.7,20.3c4.7,0,9.8-1.7,13.4-4.8c0.7-0.6,2-0.6,2.6,0.1
		l7.8,8.3c0.7,0.7,0.6,2-0.1,2.7c-6.8,6.6-15.4,9.7-24.3,9.7c-20,0-36.1-15.9-36.1-35.9S245.2,262.2,265.2,262.2z"
    />
    <path
      class="st3"
      d="M301.5,265.1c0-1,0.9-1.9,1.9-1.9h12c1,0,1.9,0.9,1.9,1.9v66.2c0,1-0.9,1.9-1.9,1.9h-12c-1,0-1.9-0.9-1.9-1.9
		V265.1z"
    />
  </g>
  <g class="st2">
    <path
      class="st3"
      d="M177,486.4c0-1,0.8-1.9,1.9-1.9h23.3c11.8,0,21.5,8.1,21.5,18.6c0,7.7-6.9,13.3-11.6,15.8
		c5.3,2.2,13.4,7.1,13.4,16.3c0,11.2-9.9,19.3-21.8,19.3h-24.8c-1.1,0-1.9-0.9-1.9-1.9V486.4z M200.4,512.9c3.8,0,7-3.2,7-7.2
		s-3.2-6.8-7-6.8h-7.8v14H200.4z M201.7,540.2c3.9,0,7.2-3.2,7.2-7.3c0-4-4.3-7-8.2-7h-8.1v14.3H201.7z"
    />
    <path
      class="st3"
      d="M238.2,486.4c0-1,0.8-1.9,1.9-1.9h41.4c1.1,0,1.9,0.9,1.9,1.9v10.9c0,1-0.8,1.9-1.9,1.9h-27.7v12.4h22.8
		c1,0,1.9,0.9,1.9,1.9v10.9c0,1.1-0.9,1.9-1.9,1.9h-22.8v13.5h27.7c1.1,0,1.9,0.9,1.9,1.9v10.9c0,1-0.8,1.9-1.9,1.9h-41.4
		c-1.1,0-1.9-0.9-1.9-1.9V486.4z"
    />
    <path
      class="st3"
      d="M296.8,486.4c0-1,0.9-1.9,1.9-1.9h12c1,0,1.9,0.9,1.9,1.9v66.2c0,1-0.9,1.9-1.9,1.9h-12c-1,0-1.9-0.9-1.9-1.9
		V486.4z"
    />
  </g>
</svg>
